<svg width="24" height="24" viewBox="0 0 24 24" fill="none" xmlns="http://www.w3.org/2000/svg">
<g clip-path="url(#clip0_221_12782)">
<path d="M17.9903 3.40194C17.9435 3.16823 17.7383 3 17.5 3C17.2617 3 17.0565 3.16823 17.0097 3.40194L16.9019 3.94078C16.704 4.93043 15.9304 5.70401 14.9408 5.90194L14.4019 6.00971C14.1682 6.05645 14 6.26166 14 6.5C14 6.73834 14.1682 6.94355 14.4019 6.99029L14.9408 7.09806C15.9304 7.29599 16.704 8.06957 16.9019 9.05922L17.0097 9.59806C17.0565 9.83177 17.2617 10 17.5 10C17.7383 10 17.9435 9.83177 17.9903 9.59806L18.0981 9.05922C18.296 8.06957 19.0696 7.29599 20.0592 7.09806L20.5981 6.99029C20.8318 6.94355 21 6.73834 21 6.5C21 6.26166 20.8318 6.05645 20.5981 6.00971L20.0592 5.90194C19.0696 5.70401 18.296 4.93043 18.0981 3.94078L17.9903 3.40194ZM10.9824 6.36844C10.9231 6.15091 10.7255 6 10.5 6C10.2745 6 10.0769 6.15091 10.0176 6.36844L9.57009 8.00939C8.96451 10.2298 7.22985 11.9645 5.00939 12.5701L3.36844 13.0176C3.15091 13.0769 3 13.2745 3 13.5C3 13.7255 3.15091 13.9231 3.36844 13.9824L5.00939 14.4299C7.22985 15.0355 8.96451 16.7702 9.57009 18.9906L10.0176 20.6316C10.0769 20.8491 10.2745 21 10.5 21C10.7255 21 10.9231 20.8491 10.9824 20.6316L11.4299 18.9906C12.0355 16.7702 13.7702 15.0355 15.9906 14.4299L17.6316 13.9824C17.8491 13.9231 18 13.7255 18 13.5C18 13.2745 17.8491 13.0769 17.6316 13.0176L15.9906 12.5701C13.7702 11.9645 12.0355 10.2298 11.4299 8.00939L10.9824 6.36844Z" fill="#A82DFD"/>
</g>
<defs>
<clipPath id="clip0_221_12782">
<rect width="24" height="24" fill="white"/>
</clipPath>
</defs>
</svg>
